# xmcd
#
# Track frame offsets: 
#        150
#        3366
#        16478
#        27002
#        40122
#        50846
#        64281
#        76804
#        89720
#        103041
#        115425
#        126605
#        140093
#        151990
#        165559
#        176310
#        190160
#        203081
#        213525
#        224301
#        236450
#        248450
#        260139
#        271199
#        293771
#
# Disc length: 4062 seconds
#
# Revision: 0
# Processed by: cddbd v1.5.2PL0 Copyright (c) Steve Scherf et al.
# Submitted via: ExactAudioCopy v0.99pb4
#
DISCID=6b0fdc19
DTITLE=Various Artist - On With The Jive
DYEAR=2008
DGENRE=R&B
TTITLE0=Dick ''Huggy Boy'' Hugg - Dolphin's Radio Jingle
TTITLE1=Red Callender Sextette - Dolphin's Theme
TTITLE2=Tony Allen - You're A Mean And Evil Woman
TTITLE3=Pee Wee Crayton - Crying And Walking
TTITLE4=Scatman Crothers - Easy Money
TTITLE5=Maggie Jacquet - Tall Tan Baby
TTITLE6=Little Caesar - Cadillac Baby
TTITLE7=Marvin Phillips - Baby Doll
TTITLE8=Red Callender Sextette - Rock Bottom
TTITLE9=Unknown Vocalist - The Blues Has Got Me
TTITLE10=Jesse Belvin - Hang Your Tears Out To Dry
TTITLE11=Scatman Crothers - Beale Street On Saturday Night
TTITLE12=Tony Allen and Maggie Jacquet - I'm Knocking On The Door
TTITLE13=Pee Wee Crayton - The Darkest Hour
TTITLE14=Linda Hayes - Atomic Baby
TTITLE15=Little Caesar - You Can't Bring Me Down
TTITLE16=Pee Wee Crayton - Forgive Me
TTITLE17=Linda Hayes - What's It To You, Jack
TTITLE18=Marvin Phillips - The Sun Was Shining
TTITLE19=Pee Wee Crayton - Pee Wee's Blues aka Pappy's Blues
TTITLE20=Scatman Crothers - Papa (I Don't Treat That Little Girl Mean)
TTITLE21=Jesse Belvin - My Love Comes Tumbling Down
TTITLE22=Marvin Phillips - My Baby Won't Let Me In
TTITLE23=Maggie Jacquet - Three Men In My Life
TTITLE24=Red Callender Sextette - The Blues
EXTD=
EXTT0=
EXTT1=
EXTT2=
EXTT3=
EXTT4=
EXTT5=
EXTT6=
EXTT7=
EXTT8=
EXTT9=
EXTT10=
EXTT11=
EXTT12=
EXTT13=
EXTT14=
EXTT15=
EXTT16=
EXTT17=
EXTT18=
EXTT19=
EXTT20=
EXTT21=
EXTT22=
EXTT23=
EXTT24=
PLAYORDER=
